<?xml version="1.0" encoding="UTF-8" standalone="no"?>
<!-- Generiert durch Microsoft Visio, SVG Export audience.svg audience -->

<svg
   width="110pt"
   height="84.049011pt"
   viewBox="0 0 110.00004 84.049139"
   xml:space="preserve"
   color-interpolation-filters="sRGB"
   class="st2"
   version="1.1"
   id="svg47"
   sodipodi:docname="audience.svg"
   inkscape:version="1.1.1 (3bf5ae0d25, 2021-09-20)"
   xmlns:inkscape="http://www.inkscape.org/namespaces/inkscape"
   xmlns:sodipodi="http://sodipodi.sourceforge.net/DTD/sodipodi-0.dtd"
   xmlns="http://www.w3.org/2000/svg"
   xmlns:svg="http://www.w3.org/2000/svg"
   xmlns:v="http://schemas.microsoft.com/visio/2003/SVGExtensions/"><defs
   id="defs51" /><sodipodi:namedview
   id="namedview49"
   pagecolor="#ffffff"
   bordercolor="#666666"
   borderopacity="1.0"
   inkscape:pageshadow="2"
   inkscape:pageopacity="0.0"
   inkscape:pagecheckerboard="0"
   inkscape:document-units="in"
   showgrid="false"
   fit-margin-top="5"
   fit-margin-left="5"
   fit-margin-right="5"
   fit-margin-bottom="5"
   inkscape:zoom="3.0568873"
   inkscape:cx="-109.75217"
   inkscape:cy="37.456403"
   inkscape:window-width="2560"
   inkscape:window-height="1369"
   inkscape:window-x="-8"
   inkscape:window-y="-8"
   inkscape:window-maximized="1"
   inkscape:current-layer="svg47"
   units="pt" />
	<v:documentProperties
   v:langID="1031"
   v:metric="true"
   v:viewMarkup="false">
		<v:userDefs>
			<v:ud
   v:nameU="msvNoAutoConnect"
   v:val="VT0(1):26" />
		</v:userDefs>
	</v:documentProperties>

	<style
   type="text/css"
   id="style2">
	<![CDATA[
		.st1 {fill:#ffffff;stroke:#000000;stroke-linecap:round;stroke-linejoin:round;stroke-width:1}
		.st2 {fill:none;fill-rule:evenodd;font-size:12px;overflow:visible;stroke-linecap:square;stroke-miterlimit:3}
	]]>
	</style>

	<g
   v:mID="5"
   v:index="6"
   v:groupContext="foregroundPage"
   id="g45"
   transform="matrix(4.2191843,0,0,4.2191843,-70.945376,-70.942784)">
		<title
   id="title4">audience</title>
		<v:pageProperties
   v:drawingScale="0.0393701"
   v:pageScale="0.0393701"
   v:drawingUnits="24"
   v:shadowOffsetX="8.50394"
   v:shadowOffsetY="-8.50394" />
		<g
   id="group1-1"
   transform="translate(18.5,-23.1416)"
   v:mID="1"
   v:groupContext="group">
			<title
   id="title6">Tabelle.1</title>
			<g
   id="shape2-2"
   v:mID="2"
   v:groupContext="shape"
   transform="translate(3.25324,-5.629)">
				<title
   id="title8">Kreis.77</title>
				<v:userDefs>
					<v:ud
   v:nameU="visVersion"
   v:val="VT0(15):26" />
				</v:userDefs>
				<path
   d="m 0,50.41 a 3.14,3.14 0 0 1 6.28,0 3.14,3.14 0 1 1 -6.28,0 z"
   class="st1"
   id="path10" />
			</g>
			<g
   id="shape3-4"
   v:mID="3"
   v:groupContext="shape"
   transform="translate(0,2.00378)">
				<title
   id="title13">Tabelle.3</title>
				<path
   d="M 12.78,53.55 V 50.81 A 2.40922,3.53907 -180 0 0 10.37,47.27 H 2.41 A 2.40922,3.53907 -180 0 0 0,50.81 v 2.74 z"
   class="st1"
   id="path15" />
			</g>
		</g>
		<g
   id="group4-6"
   transform="translate(28.4213,-23.1416)"
   v:mID="4"
   v:groupContext="group">
			<title
   id="title19">Tabelle.4</title>
			<g
   id="shape5-7"
   v:mID="5"
   v:groupContext="shape"
   transform="translate(3.25324,-5.629)">
				<title
   id="title21">Kreis.77</title>
				<v:userDefs>
					<v:ud
   v:nameU="visVersion"
   v:val="VT0(15):26" />
				</v:userDefs>
				<path
   d="m 0,50.41 a 3.14,3.14 0 0 1 6.28,0 3.14,3.14 0 1 1 -6.28,0 z"
   class="st1"
   id="path23" />
			</g>
			<g
   id="shape6-9"
   v:mID="6"
   v:groupContext="shape"
   transform="translate(0,2.00378)">
				<title
   id="title26">Tabelle.6</title>
				<path
   d="M 12.78,53.55 V 50.81 A 2.40922,3.53907 -180 0 0 10.37,47.27 H 2.41 A 2.40922,3.53907 -180 0 0 0,50.81 v 2.74 z"
   class="st1"
   id="path28" />
			</g>
		</g>
		<g
   id="group7-11"
   transform="translate(23.4606,-20.5038)"
   v:mID="7"
   v:groupContext="group">
			<title
   id="title32">Tabelle.7</title>
			<g
   id="shape8-12"
   v:mID="8"
   v:groupContext="shape"
   transform="translate(3.25324,-5.4725)">
				<title
   id="title34">Kreis.77</title>
				<v:userDefs>
					<v:ud
   v:nameU="visVersion"
   v:val="VT0(15):26" />
				</v:userDefs>
				<path
   d="m 0,50.41 a 3.14,3.14 0 0 1 6.28,0 3.14,3.14 0 1 1 -6.28,0 z"
   class="st1"
   id="path36" />
			</g>
			<g
   id="shape9-14"
   v:mID="9"
   v:groupContext="shape"
   transform="translate(0,2.00378)">
				<title
   id="title39">Tabelle.9</title>
				<path
   d="M 12.78,53.55 V 50.81 A 2.40922,3.53907 -180 0 0 10.37,47.27 H 2.41 A 2.40922,3.53907 -180 0 0 0,50.81 v 2.74 z"
   class="st1"
   id="path41" />
			</g>
		</g>
	</g>
</svg>
