<?xml version="1.0" encoding="UTF-8" standalone="no"?>
<svg
   width="72.184906pt"
   height="110pt"
   version="1.1"
   viewBox="0 0 72.184906 110"
   id="svg4"
   sodipodi:docname="company.svg"
   inkscape:version="1.1.1 (3bf5ae0d25, 2021-09-20)"
   xmlns:inkscape="http://www.inkscape.org/namespaces/inkscape"
   xmlns:sodipodi="http://sodipodi.sourceforge.net/DTD/sodipodi-0.dtd"
   xmlns="http://www.w3.org/2000/svg"
   xmlns:svg="http://www.w3.org/2000/svg">
  <defs
     id="defs8" />
  <sodipodi:namedview
     id="namedview6"
     pagecolor="#ffffff"
     bordercolor="#666666"
     borderopacity="1.0"
     inkscape:pageshadow="2"
     inkscape:pageopacity="0.0"
     inkscape:pagecheckerboard="0"
     inkscape:document-units="pt"
     showgrid="false"
     fit-margin-top="5"
     fit-margin-left="5"
     fit-margin-bottom="5"
     fit-margin-right="5"
     inkscape:zoom="5.1152344"
     inkscape:cx="48.189385"
     inkscape:cy="73.408171"
     inkscape:window-width="2560"
     inkscape:window-height="1369"
     inkscape:window-x="-8"
     inkscape:window-y="-8"
     inkscape:window-maximized="1"
     inkscape:current-layer="svg4" />
  <path
     d="m 47.651281,33.845156 c 0,-0.679579 -0.461363,-1.271916 -1.122204,-1.43711 L 39.109778,30.565691 V 5.000479 l 18.536076,7.001524 V 43.936372 L 47.651999,46.42091 Z M 36.151524,5 17.621833,12.001524 v 13.220331 l 18.532883,4.607404 z m -16.331889,99.99441 h 10.050516 l 0.0031,-17.681371 H 19.81956 Z M 5.000032,25.13455 44.692946,34.997526 V 104.99761 H 32.83487 V 85.835069 c 0,-0.392787 -0.155866,-0.769981 -0.433312,-1.047427 -0.277447,-0.277447 -0.65464,-0.436433 -1.047428,-0.436433 H 18.338896 c -0.392788,0 -0.766869,0.158986 -1.044315,0.436433 -0.277447,0.277446 -0.433312,0.65464 -0.433312,1.044315 V 104.99769 H 5 Z m 25.100753,20.053947 c 0,0.389667 0.155865,0.766869 0.436424,1.044315 0.277446,0.277447 0.651528,0.433312 1.044315,0.433312 h 4.725913 c 0.788687,-0.03741 1.412132,-0.688932 1.412132,-1.477651 0,-0.791807 -0.623469,-1.443335 -1.412132,-1.480763 h -4.725913 c -0.389667,0 -0.766869,0.155865 -1.044315,0.433312 -0.277447,0.277446 -0.433312,0.65464 -0.436424,1.047427 z m 0,10.52136 c 0,0.816714 0.663993,1.480763 1.480763,1.480763 h 4.725913 c 0.816714,0 1.480763,-0.663993 1.480763,-1.480763 0,-0.819827 -0.663993,-1.480764 -1.480763,-1.480764 h -4.725913 c -0.816714,0 -1.480763,0.660873 -1.480763,1.480764 z m 0,10.521359 c 0,0.392787 0.155865,0.769981 0.433311,1.047428 0.280559,0.277446 0.654641,0.433311 1.047428,0.433311 h 4.725913 c 0.801152,-0.02182 1.440223,-0.679579 1.440223,-1.480763 0,-0.801152 -0.639055,-1.458897 -1.440223,-1.480763 h -4.725913 c -0.392787,0 -0.766869,0.155865 -1.044315,0.433312 -0.280559,0.277446 -0.436424,0.65464 -0.436424,1.047427 z m 0,10.52136 c 0,0.392787 0.155865,0.769981 0.433311,1.047427 0.280559,0.277447 0.654641,0.433312 1.047428,0.433312 h 4.725913 c 0.801152,-0.02182 1.440223,-0.679579 1.440223,-1.480763 0,-0.801153 -0.639055,-1.458897 -1.440223,-1.480764 h -4.725913 c -0.392787,0 -0.766869,0.155866 -1.044315,0.433312 -0.280559,0.277447 -0.436424,0.65464 -0.436424,1.047428 z M 20.655183,45.189295 c 0,0.816714 0.663993,1.477651 1.480763,1.477651 h 4.722801 c 0.801152,-0.02182 1.440223,-0.676467 1.440223,-1.480763 0,-0.801153 -0.639055,-1.455785 -1.440223,-1.477651 h -4.722801 c -0.392787,0 -0.769981,0.155865 -1.047427,0.433312 -0.277447,0.277446 -0.433312,0.65464 -0.433312,1.047427 z m 0,10.52136 c 0,0.816714 0.663993,1.477651 1.480763,1.480763 h 4.722801 c 0.816714,0 1.480763,-0.663993 1.480763,-1.480763 0,-0.819827 -0.663993,-1.480764 -1.480763,-1.480764 h -4.722801 c -0.816714,0 -1.480763,0.660873 -1.480763,1.480764 z m 0,10.521359 c 0,0.816714 0.663993,1.480763 1.480763,1.480763 h 4.722801 c 0.801152,-0.02182 1.440223,-0.679579 1.440223,-1.480763 0,-0.801152 -0.639055,-1.458897 -1.440223,-1.480763 h -4.722801 c -0.816714,0 -1.480763,0.663993 -1.480763,1.480763 z m 0,10.52136 c 0,0.816714 0.663993,1.480763 1.480763,1.480763 h 4.722801 c 0.801152,-0.02182 1.440223,-0.679579 1.440223,-1.480763 0,-0.801153 -0.639055,-1.458897 -1.440223,-1.480764 h -4.722801 c -0.816714,0 -1.480763,0.663994 -1.480763,1.480764 z M 11.206389,45.190093 c 0.0031,0.816714 0.663993,1.477651 1.480763,1.477651 h 4.725914 c 0.39902,0.01247 0.785574,-0.140279 1.072406,-0.417726 0.286799,-0.280559 0.445777,-0.660873 0.445777,-1.062989 0,-0.39902 -0.158986,-0.782455 -0.445777,-1.059877 -0.286792,-0.277423 -0.673347,-0.430192 -1.072406,-0.417726 h -4.725914 c -0.392787,0 -0.766868,0.155865 -1.047427,0.433311 -0.277447,0.277447 -0.433312,0.654641 -0.433312,1.047428 z m 0,10.52136 c 0.0031,0.816714 0.663993,1.477651 1.480763,1.480763 h 4.725914 c 0.816714,0 1.480763,-0.663993 1.480763,-1.480763 0,-0.819827 -0.663993,-1.480764 -1.480763,-1.480764 h -4.725914 c -0.816714,0 -1.47765,0.660873 -1.480763,1.480764 z m 0,10.521359 c 0,0.816714 0.663993,1.480763 1.480763,1.480763 h 4.725914 c 0.39902,0.0094 0.785574,-0.140279 1.072406,-0.420838 0.286799,-0.277447 0.445777,-0.660873 0.445777,-1.059877 0,-0.399004 -0.158986,-0.782454 -0.445777,-1.059877 -0.2868,-0.280559 -0.673347,-0.430191 -1.072406,-0.420838 h -4.725914 c -0.816714,0 -1.47765,0.663993 -1.480763,1.480763 z m 0,10.52136 c 0,0.816714 0.663993,1.480763 1.480763,1.480763 h 4.725914 c 0.39902,0.0094 0.785574,-0.140279 1.072406,-0.420838 0.286799,-0.277447 0.445777,-0.660881 0.445777,-1.059877 0,-0.398996 -0.158986,-0.782455 -0.445777,-1.059877 -0.2868,-0.280559 -0.673347,-0.430192 -1.072406,-0.420839 h -4.725914 c -0.816714,0 -1.47765,0.663994 -1.480763,1.480764 z M 67.184906,44.620293 V 105 H 47.651281 V 49.477164 Z M 54.559913,83.711485 c -0.0031,-0.816715 -0.663993,-1.477651 -1.477651,-1.480764 h -2.294365 c -0.39902,-0.0094 -0.785567,0.14028 -1.072406,0.420839 -0.283679,0.277446 -0.445777,0.660873 -0.445777,1.059877 0,0.399004 0.162098,0.782454 0.445777,1.059877 0.286799,0.280559 0.673346,0.430191 1.072406,0.420838 h 2.294365 c 0.816714,-0.0031 1.477651,-0.663993 1.477651,-1.480763 z m 0,-8.064195 c -0.0062,-0.813602 -0.663993,-1.471426 -1.477651,-1.474538 h -2.294365 c -0.816714,0 -1.480763,0.663993 -1.480763,1.480763 0,0.816714 0.663993,1.480763 1.480763,1.480763 h 2.294365 c 0.816714,-0.0031 1.477651,-0.663993 1.477651,-1.480763 z m 0,-8.058608 v -0.0031 c -0.0062,-0.810489 -0.663993,-1.468234 -1.477651,-1.471426 h -2.294365 c -0.39902,-0.0094 -0.785567,0.14028 -1.072406,0.420838 -0.283679,0.277447 -0.445777,0.660873 -0.445777,1.059877 0,0.399004 0.162098,0.782455 0.445777,1.059877 0.286799,0.280559 0.673346,0.430192 1.072406,0.420839 h 2.294365 c 0.816714,-0.0031 1.477651,-0.663993 1.477651,-1.480763 z m 0,-8.064194 v -0.0031 c -0.0094,-0.81049 -0.667114,-1.465122 -1.477651,-1.465122 h -2.294365 c -0.39902,-0.01247 -0.785567,0.14028 -1.072406,0.417726 -0.283679,0.280559 -0.445777,0.663994 -0.445777,1.06299 0,0.398996 0.162098,0.782454 0.445777,1.059877 0.286799,0.277446 0.673346,0.430191 1.072406,0.420838 h 2.294365 c 0.816714,-0.0031 1.477651,-0.667114 1.477651,-1.480763 z m 8.562969,24.187795 c 0,-0.392788 -0.155865,-0.769981 -0.433312,-1.047428 -0.277446,-0.277446 -0.65464,-0.433312 -1.047427,-0.433312 H 59.35089 c -0.801152,0.02182 -1.440223,0.676467 -1.440223,1.477651 0,0.804265 0.639055,1.458897 1.440223,1.480763 h 2.291253 c 0.392787,0 0.769981,-0.155865 1.047427,-0.433311 0.277447,-0.277447 0.433312,-0.654641 0.433312,-1.044315 z m 0,-8.064195 c 0,-0.819826 -0.663993,-1.480763 -1.480763,-1.480763 h -2.291253 c -0.816714,0 -1.480763,0.660873 -1.480763,1.480763 0,0.816714 0.663993,1.480764 1.480763,1.480764 h 2.291253 c 0.813602,-0.0031 1.474539,-0.660873 1.480763,-1.474539 z m 0,-8.058608 v -0.0031 c 0,-0.816714 -0.663993,-1.477651 -1.480763,-1.477651 h -2.291253 c -0.801152,0.02182 -1.440222,0.676467 -1.440222,1.480764 0,0.801152 0.639054,1.455784 1.440222,1.477651 h 2.291253 c 0.813602,0 1.477651,-0.657761 1.480763,-1.471427 z m 0,-8.064194 v -0.0031 c 0,-0.816714 -0.663993,-1.477651 -1.480763,-1.477651 h -2.291253 c -0.801152,0.02182 -1.440222,0.676467 -1.440222,1.480763 0,0.801153 0.639054,1.455785 1.440222,1.477651 h 2.291253 c 0.813602,0 1.474539,-0.65464 1.480763,-1.465121 z"
     id="path2"
     style="stroke-width:0.79804" />
</svg>
