<?xml version="1.0" encoding="UTF-8" standalone="no"?>
<svg
   width="110pt"
   height="99.997604pt"
   version="1.1"
   viewBox="0 0 110 99.997604"
   id="svg4"
   sodipodi:docname="calendar.svg"
   inkscape:version="1.1.1 (3bf5ae0d25, 2021-09-20)"
   xmlns:inkscape="http://www.inkscape.org/namespaces/inkscape"
   xmlns:sodipodi="http://sodipodi.sourceforge.net/DTD/sodipodi-0.dtd"
   xmlns="http://www.w3.org/2000/svg"
   xmlns:svg="http://www.w3.org/2000/svg">
  <defs
     id="defs8" />
  <sodipodi:namedview
     id="namedview6"
     pagecolor="#ffffff"
     bordercolor="#666666"
     borderopacity="1.0"
     inkscape:pageshadow="2"
     inkscape:pageopacity="0.0"
     inkscape:pagecheckerboard="0"
     inkscape:document-units="pt"
     showgrid="false"
     fit-margin-top="5"
     fit-margin-left="5"
     fit-margin-bottom="5"
     fit-margin-right="5"
     inkscape:zoom="5.1152344"
     inkscape:cx="73.408171"
     inkscape:cy="66.761359"
     inkscape:window-width="2560"
     inkscape:window-height="1369"
     inkscape:window-x="-8"
     inkscape:window-y="-8"
     inkscape:window-maximized="1"
     inkscape:current-layer="svg4" />
  <path
     id="path2"
     style="stroke-width:1.48862"
     d="m 29.98092,5 c -0.662897,0 -1.301826,0.261666 -1.772824,0.73268 -0.465195,0.471015 -0.72614,1.110664 -0.72614,1.779367 v 2.488061 h 5.00011 V 7.512047 C 32.482066,6.843329 32.2204,6.203665 31.749385,5.73268 31.278371,5.261666 30.643818,5 29.98092,5 Z m 2.501146,5.000108 v 7.490352 c 0,0.668718 -0.261666,1.308381 -0.732681,1.779367 -0.471014,0.471014 -1.105567,0.73268 -1.768465,0.73268 -0.662897,0 -1.301089,-0.261666 -1.766283,-0.73268 -0.471015,-0.471015 -0.732681,-1.110665 -0.732681,-1.779367 V 10.000108 H 15.47995 C 9.705738,10.000108 5,14.745097 5,20.519308 v 9.483417 h 100 v -9.483417 c 0,-5.774211 -4.74499,-10.5192 -10.51919,-10.5192 H 82.502781 V 7.512047 h -0.0065 C 82.502081,6.139717 81.397321,5.017416 80.019122,5 79.350404,5 78.704194,5.261666 78.233213,5.73268 77.762198,6.203695 77.494727,6.843344 77.500532,7.512047 v 2.488061 h 4.995749 v 7.490352 c 0.0058,1.372329 -1.104788,2.49463 -2.477159,2.512047 -0.668718,0 -1.31274,-0.261666 -1.783732,-0.73268 -0.47682,-0.471015 -0.739223,-1.110665 -0.739212,-1.779367 V 10.000108 Z M 5,34.998473 v 49.521356 c 0,5.774218 4.705738,10.477778 10.47995,10.477778 h 79.00086 c 5.7742,0 10.51919,-4.70356 10.51919,-10.477778 V 34.998473 Z m 10.597703,9.269718 h 8.111821 c 3.169133,0 5.68409,0.232597 7.544865,0.697791 1.875314,0.450657 3.459881,1.075761 4.753702,1.875313 2.209671,1.381045 3.932343,3.220016 5.168015,5.516911 1.235672,2.296896 1.853507,5.022642 1.853507,8.177239 0,2.951074 -0.64691,5.625941 -1.940731,8.024596 -1.279283,2.398659 -2.987418,4.259439 -5.124403,5.582328 -1.482806,0.915848 -3.14006,1.577298 -4.971762,1.984351 -1.817164,0.407041 -4.21582,0.610561 -7.195969,0.610561 h -8.199045 z m 4.317581,3.707015 v 25.055063 h 4.055911 c 2.078836,0 3.888732,-0.152643 5.429687,-0.45793 1.555492,-0.305286 2.980149,-0.872238 4.27397,-1.700868 1.613642,-1.03215 2.820239,-2.39138 3.619791,-4.077712 0.814089,-1.686329 1.221134,-3.79424 1.221134,-6.323731 0,-2.54403 -0.443388,-4.688284 -1.330164,-6.432762 -0.886776,-1.744477 -2.209671,-3.118254 -3.968686,-4.121329 -1.279285,-0.726865 -2.638522,-1.228403 -4.077717,-1.504612 -1.439195,-0.290745 -3.161865,-0.436119 -5.168015,-0.436119 z m 38.095031,3.816045 c 1.715403,0 3.205478,0.145373 4.470224,0.436119 1.279284,0.27621 2.38412,0.75594 3.314507,1.439195 0.915852,0.668716 1.613643,1.533686 2.093373,2.59491 0.479732,1.061224 0.719598,2.37685 0.719598,3.94688 v 16.528926 h -4.077716 v -2.594912 c -0.363433,0.247141 -0.857702,0.596037 -1.482806,1.046687 -0.610568,0.436125 -1.206597,0.78502 -1.788091,1.046687 -0.683253,0.334359 -1.468268,0.610572 -2.355044,0.828629 -0.886777,0.232594 -1.926194,0.348896 -3.118254,0.348896 -2.195134,0 -4.05591,-0.726864 -5.582329,-2.180603 -1.526417,-1.453728 -2.289627,-3.307239 -2.289627,-5.560524 0,-1.846232 0.392508,-3.336307 1.177523,-4.470218 0.799553,-1.148448 1.933463,-2.049762 3.401732,-2.70394 1.482806,-0.65418 3.263627,-1.097568 5.342462,-1.330164 2.078836,-0.232598 4.310314,-0.407046 6.694434,-0.523343 v -0.632374 c 0,-0.930388 -0.16718,-1.700866 -0.501538,-2.311433 -0.319821,-0.610567 -0.785015,-1.090299 -1.395582,-1.439194 -0.581492,-0.334358 -1.279283,-0.559687 -2.093373,-0.675985 -0.81409,-0.116299 -1.664522,-0.174447 -2.551299,-0.174447 -1.075761,0 -2.27509,0.145372 -3.597986,0.436118 -1.322894,0.276209 -2.689402,0.683255 -4.099521,1.221134 h -0.21806 v -4.164939 c 0.799552,-0.218061 1.955268,-0.457925 3.467149,-0.719598 1.51188,-0.261671 3.001956,-0.392507 4.470224,-0.392507 z m 15.438633,0.588761 h 4.448412 l 7.47945,18.055345 7.54486,-18.055345 h 4.29578 L 82.999955,85.721336 h -4.382999 l 4.535642,-10.16158 z m -8.918647,11.578971 c -1.25021,0.07269 -2.725748,0.181716 -4.426613,0.327089 -1.686328,0.145374 -3.023761,0.356165 -4.012298,0.632373 -1.177523,0.334359 -2.129717,0.857702 -2.856583,1.570027 -0.726865,0.697791 -1.090298,1.664528 -1.090298,2.900199 0,1.395582 0.421582,2.449536 1.264746,3.161864 0.843165,0.697791 2.129716,1.046687 3.859658,1.046687 1.439193,0 2.75482,-0.276214 3.94688,-0.82863 1.192059,-0.566953 2.296895,-1.242939 3.314508,-2.027948 z" />
</svg>
