<?xml version="1.0" encoding="UTF-8" standalone="no"?>
<!-- Generiert durch Microsoft Visio, SVG Export group.svg Page-5 -->

<svg
   width="110pt"
   height="80.472961pt"
   viewBox="0 0 110.00005 80.473004"
   xml:space="preserve"
   color-interpolation-filters="sRGB"
   class="st2"
   version="1.1"
   id="svg47"
   sodipodi:docname="group.svg"
   inkscape:version="1.1.1 (3bf5ae0d25, 2021-09-20)"
   xmlns:inkscape="http://www.inkscape.org/namespaces/inkscape"
   xmlns:sodipodi="http://sodipodi.sourceforge.net/DTD/sodipodi-0.dtd"
   xmlns="http://www.w3.org/2000/svg"
   xmlns:svg="http://www.w3.org/2000/svg"
   xmlns:v="http://schemas.microsoft.com/visio/2003/SVGExtensions/"><defs
   id="defs51" /><sodipodi:namedview
   id="namedview49"
   pagecolor="#ffffff"
   bordercolor="#666666"
   borderopacity="1.0"
   inkscape:pageshadow="2"
   inkscape:pageopacity="0.0"
   inkscape:pagecheckerboard="0"
   inkscape:document-units="in"
   showgrid="false"
   units="pt"
   fit-margin-top="5"
   fit-margin-left="5"
   fit-margin-bottom="5"
   fit-margin-right="5"
   inkscape:zoom="12.392243"
   inkscape:cx="73.311989"
   inkscape:cy="53.622253"
   inkscape:window-width="2560"
   inkscape:window-height="1369"
   inkscape:window-x="-8"
   inkscape:window-y="-8"
   inkscape:window-maximized="1"
   inkscape:current-layer="svg47" />
	<v:documentProperties
   v:langID="1031"
   v:metric="true"
   v:viewMarkup="false">
		<v:userDefs>
			<v:ud
   v:nameU="msvNoAutoConnect"
   v:val="VT0(1):26" />
		</v:userDefs>
	</v:documentProperties>

	<style
   type="text/css"
   id="style2">
	<![CDATA[
		.st1 {fill:#000000;stroke:#ffffff;stroke-linecap:round;stroke-linejoin:round;stroke-width:0.25}
		.st2 {fill:none;fill-rule:evenodd;font-size:12px;overflow:visible;stroke-linecap:square;stroke-miterlimit:3}
	]]>
	</style>

	<g
   v:mID="6"
   v:index="7"
   v:groupContext="foregroundPage"
   id="g45"
   transform="matrix(4.1852057,0,0,4.1852057,-70.3337,-70.339566)">
		<title
   id="title4">group</title>
		<v:pageProperties
   v:drawingScale="0.0393701"
   v:pageScale="0.0393701"
   v:drawingUnits="24"
   v:shadowOffsetX="8.50394"
   v:shadowOffsetY="-8.50394" />
		<g
   id="group20-1"
   transform="translate(18.125,-19.4204)"
   v:mID="20"
   v:groupContext="group">
			<title
   id="title6">Tabelle.20</title>
			<g
   id="shape14-2"
   v:mID="14"
   v:groupContext="shape"
   transform="translate(3.28819,-7.6932)">
				<title
   id="title8">Kreis.14</title>
				<v:userDefs>
					<v:ud
   v:nameU="visVersion"
   v:val="VT0(15):26" />
				</v:userDefs>
				<path
   d="m 0,49.04 a 3.8,3.8 0 0 1 7.6,0 3.8,3.8 0 0 1 -7.6,0 z"
   class="st1"
   id="path10" />
			</g>
			<g
   id="shape15-4"
   v:mID="15"
   v:groupContext="shape">
				<title
   id="title13">Tabelle.15</title>
				<path
   d="M 14.17,52.84 V 49.52 A 2.67123,4.28355 -180 0 0 11.5,45.24 H 2.67 A 2.67123,4.28355 -180 0 0 0,49.52 v 3.32 z"
   class="st1"
   id="path15" />
			</g>
		</g>
		<g
   id="group21-6"
   transform="translate(27.5987,-19.4204)"
   v:mID="21"
   v:groupContext="group">
			<title
   id="title19">Tabelle.21</title>
			<g
   id="shape22-7"
   v:mID="22"
   v:groupContext="shape"
   transform="translate(3.28819,-7.6932)">
				<title
   id="title21">Kreis.14</title>
				<v:userDefs>
					<v:ud
   v:nameU="visVersion"
   v:val="VT0(15):26" />
				</v:userDefs>
				<path
   d="m 0,49.04 a 3.8,3.8 0 0 1 7.6,0 3.8,3.8 0 0 1 -7.6,0 z"
   class="st1"
   id="path23" />
			</g>
			<g
   id="shape23-9"
   v:mID="23"
   v:groupContext="shape">
				<title
   id="title26">Tabelle.23</title>
				<path
   d="M 14.17,52.84 V 49.52 A 2.67123,4.28355 -180 0 0 11.5,45.24 H 2.67 A 2.67123,4.28355 -180 0 0 0,49.52 v 3.32 z"
   class="st1"
   id="path28" />
			</g>
		</g>
		<g
   id="group24-11"
   transform="translate(22.8618,-18.125)"
   v:mID="24"
   v:groupContext="group">
			<title
   id="title32">Tabelle.24</title>
			<g
   id="shape25-12"
   v:mID="25"
   v:groupContext="shape"
   transform="translate(3.28819,-7.6932)">
				<title
   id="title34">Kreis.14</title>
				<v:userDefs>
					<v:ud
   v:nameU="visVersion"
   v:val="VT0(15):26" />
				</v:userDefs>
				<path
   d="m 0,49.04 a 3.8,3.8 0 0 1 7.6,0 3.8,3.8 0 0 1 -7.6,0 z"
   class="st1"
   id="path36" />
			</g>
			<g
   id="shape26-14"
   v:mID="26"
   v:groupContext="shape">
				<title
   id="title39">Tabelle.26</title>
				<path
   d="M 14.17,52.84 V 49.52 A 2.67123,4.28355 -180 0 0 11.5,45.24 H 2.67 A 2.67123,4.28355 -180 0 0 0,49.52 v 3.32 z"
   class="st1"
   id="path41" />
			</g>
		</g>
	</g>
</svg>
