<?xml version="1.0" encoding="UTF-8" standalone="no"?>
<svg
   width="92.083366pt"
   height="110.00007pt"
   version="1.1"
   viewBox="0 0 92.083366 110.00007"
   id="svg10"
   sodipodi:docname="location.svg"
   inkscape:version="1.1.1 (3bf5ae0d25, 2021-09-20)"
   xmlns:inkscape="http://www.inkscape.org/namespaces/inkscape"
   xmlns:sodipodi="http://sodipodi.sourceforge.net/DTD/sodipodi-0.dtd"
   xmlns="http://www.w3.org/2000/svg"
   xmlns:svg="http://www.w3.org/2000/svg">
  <defs
     id="defs14" />
  <sodipodi:namedview
     id="namedview12"
     pagecolor="#ffffff"
     bordercolor="#666666"
     borderopacity="1.0"
     inkscape:pageshadow="2"
     inkscape:pageopacity="0.0"
     inkscape:pagecheckerboard="0"
     inkscape:document-units="pt"
     showgrid="false"
     fit-margin-top="5"
     fit-margin-left="5"
     fit-margin-right="5"
     fit-margin-bottom="5"
     inkscape:zoom="5.1152344"
     inkscape:cx="61.483009"
     inkscape:cy="73.408171"
     inkscape:window-width="2560"
     inkscape:window-height="1369"
     inkscape:window-x="-8"
     inkscape:window-y="-8"
     inkscape:window-maximized="1"
     inkscape:current-layer="svg10" />
  <g
     id="g8"
     transform="matrix(0.8928888,0,0,0.8928888,-11.088865,-2.1467623)">
    <path
       d="m 60.582,103.14 c 0.03516,0.0391 0.0625,0.0742 0.09766,0.11719 1.3555,1.6523 2.4961,3.0078 3.3203,3.9844 0.84766,-1 2.0195,-2.3984 3.4258,-4.1055 10,-12.258 33.266,-42.496 33.266,-58.441 0,-20.23 -16.461,-36.691 -36.691,-36.691 -20.23,0 -36.691,16.461 -36.691,36.691 0,15.945 23.266,46.184 33.273,58.445 z M 64,23.519 c 11.691,0 21.199,9.5 21.199,21.176 0,11.691 -9.5117,21.199 -21.199,21.199 -11.676,0 -21.176,-9.5078 -21.176,-21.199 0,-11.676 9.5,-21.176 21.176,-21.176 z"
       id="path2" />
    <path
       d="m 64,61.891 c 9.4844,0 17.199,-7.7148 17.199,-17.199 0,-9.4727 -7.7148,-17.176 -17.199,-17.176 -9.4727,0 -17.176,7.707 -17.176,17.176 0,9.4844 7.7031,17.199 17.176,17.199 z"
       id="path4" />
    <path
       d="m 64,120 c 28.508,0 44.652,-4.3281 45.949,-6.8242 -1.1172,-2.0742 -14.066,-6.168 -40.051,-6.7578 -0.03125,0.0352 -0.05469,0.0664 -0.08594,0.10156 -0.28906,0.34766 -0.5625,0.67969 -0.82812,0.99609 -0.03516,0.043 -0.07031,0.082 -0.10547,0.125 -0.26953,0.32422 -0.52734,0.63281 -0.76953,0.92188 -0.03125,0.0391 -0.0625,0.0742 -0.09375,0.11328 -0.24219,0.28906 -0.46875,0.55859 -0.67969,0.80469 -0.01172,0.0156 -0.02344,0.0273 -0.03516,0.043 -1.1289,1.3359 -1.7891,2.0977 -1.7891,2.0977 -0.37891,0.4375 -0.92969,0.6875 -1.5078,0.6875 -0.57811,0 -1.1289,-0.25 -1.5078,-0.6875 0,0 -0.66406,-0.76562 -1.7969,-2.1055 -0.0078,-0.0117 -0.01563,-0.0195 -0.02734,-0.0312 -0.21094,-0.25 -0.4375,-0.51953 -0.67969,-0.80469 -0.03516,-0.0391 -0.06641,-0.0781 -0.10156,-0.12109 -0.23828,-0.28516 -0.48828,-0.58594 -0.75391,-0.90234 -0.04297,-0.0508 -0.08594,-0.10156 -0.12891,-0.15234 -0.25781,-0.30859 -0.52344,-0.62891 -0.80078,-0.96875 -0.03516,-0.043 -0.0625,-0.0781 -0.09766,-0.12109 -26.352,0.59766 -39.297,4.8008 -40.09,6.8438 0.94922,2.3125 17.137,6.7422 45.98,6.7422 z"
       id="path6" />
  </g>
</svg>
