<?xml version="1.0" encoding="UTF-8" standalone="no"?>
<svg
   width="99.68734pt"
   height="110pt"
   version="1.1"
   viewBox="0 0 99.68734 110"
   id="svg18"
   sodipodi:docname="resource.svg"
   inkscape:version="1.1.1 (3bf5ae0d25, 2021-09-20)"
   xmlns:inkscape="http://www.inkscape.org/namespaces/inkscape"
   xmlns:sodipodi="http://sodipodi.sourceforge.net/DTD/sodipodi-0.dtd"
   xmlns="http://www.w3.org/2000/svg"
   xmlns:svg="http://www.w3.org/2000/svg">
  <defs
     id="defs22" />
  <sodipodi:namedview
     id="namedview20"
     pagecolor="#ffffff"
     bordercolor="#666666"
     borderopacity="1.0"
     inkscape:pageshadow="2"
     inkscape:pageopacity="0.0"
     inkscape:pagecheckerboard="0"
     inkscape:document-units="pt"
     showgrid="false"
     fit-margin-top="5"
     fit-margin-left="5"
     fit-margin-right="5"
     fit-margin-bottom="5"
     inkscape:zoom="5.1152344"
     inkscape:cx="66.37037"
     inkscape:cy="73.212677"
     inkscape:window-width="2560"
     inkscape:window-height="1369"
     inkscape:window-x="-8"
     inkscape:window-y="-8"
     inkscape:window-maximized="1"
     inkscape:current-layer="svg18" />
  <g
     id="g16"
     transform="matrix(0.80621177,0,0,0.80621177,-1.7964337,3.3578071)">
    <path
       d="m 57.793,9.5039 c 0,-0.58203 0,-0.96875 -0.38672,-1.5508 -0.19531,-0.38672 -0.77734,-0.77734 -1.1641,-0.77734 l -22.496,-4.2656 c -0.96875,-0.19531 -2.1328,0.58203 -2.3281,1.5508 l -14.738,78.156 h 27.152 z m -20.75,59.734 c -0.38672,2.1328 -2.5195,3.6836 -4.8477,3.2969 -2.1328,-0.38672 -3.6836,-2.5195 -3.2969,-4.6562 0.38672,-2.1328 2.5195,-3.6836 4.8477,-3.2969 2.3281,0.19531 3.6836,2.3281 3.2969,4.6562 z m -4.2656,-21.336 6.0117,-31.418 7.9531,1.5508 -6.0156,31.418 z"
       id="path2" />
    <path
       d="m 54.887,26.184 h 11.25 v 56.438 h -11.25 z"
       id="path4" />
    <path
       d="M 80.484,22.305 69.816,2.91 c -0.58203,-1.1641 -2.7148,-1.1641 -3.4922,0 l -10.668,19.395 h 24.828 z"
       id="path6" />
    <path
       d="m 70.012,82.617 h 11.25 V 26.183 h -11.25 z"
       id="path8" />
    <path
       d="m 119.27,89.602 c 0.38672,-0.58203 0.58203,-1.3594 0.19531,-2.1328 -0.38672,-0.58203 -0.96875,-1.1641 -1.7461,-1.1641 h -102.21 c -0.58203,0 -1.1641,0.19531 -1.5508,0.77734 -7.3711,9.3086 -7.3711,19.586 0,28.898 0.38672,0.38672 0.96875,0.77734 1.5508,0.77734 h 15.902 v -9.3086 h -2.7148 c -3.1016,0 -5.8164,-2.5195 -5.8164,-5.8164 0,-3.2969 2.5195,-5.8164 5.8164,-5.8164 h 65.938 c 3.1016,0 5.8164,2.5195 5.8164,5.8164 0,3.2969 -2.5195,5.8164 -5.8164,5.8164 h -36.848 v 9.3086 h 59.926 c 0.77734,0 1.3594,-0.38672 1.7461,-1.1641 0.38672,-0.58203 0.19531,-1.5508 -0.19531,-2.1328 -6.3984,-7.7656 -6.3984,-15.91 0.004,-23.859 z"
       id="path10" />
    <path
       d="m 96.582,101.62 c 0,-0.96875 -0.96875,-1.9375 -1.9375,-1.9375 h -65.938 c -0.96875,0 -1.9375,0.96875 -1.9375,1.9375 0,1.1641 0.96875,1.9375 1.9375,1.9375 h 6.5938 l -0.0039,20.559 c 0,0.77734 0.38672,1.3594 1.1641,1.7461 0.77734,0.38672 1.5508,0.19531 2.1328,-0.19531 l 6.207,-5.043 6.207,5.043 c 0.58203,0.38672 1.3594,0.58203 2.1328,0.19531 0.77734,-0.38672 1.1641,-0.96875 1.1641,-1.7461 v -20.559 h 40.727 c 0.77344,0 1.5508,-0.77344 1.5508,-1.9375 z"
       id="path12" />
    <path
       d="m 110.55,11.055 c 0,-1.1641 -0.77734,-1.9375 -1.9375,-1.9375 h -17.844 c -0.96875,0 -1.9375,0.77734 -1.9375,1.9375 v 6.7891 h 8.9219 c 1.1641,0 1.9375,0.96875 1.9375,1.9375 0,1.1641 -0.77734,1.9375 -1.9375,1.9375 H 88.831 v 5.8164 h 5.625 c 0.96875,0 1.9375,0.77734 1.9375,1.9375 0,1.1641 -0.96875,1.9375 -1.9375,1.9375 h -5.625 v 5.8164 h 8.9219 c 1.1641,0 1.9375,0.96875 1.9375,1.9375 0,1.1641 -0.77734,1.9375 -1.9375,1.9375 H 88.831 v 5.8164 h 5.625 c 0.96875,0 1.9375,0.96875 1.9375,1.9375 0,1.1641 -0.96875,1.9375 -1.9375,1.9375 h -5.625 v 5.8164 h 8.9219 c 1.1641,0 1.9375,0.77734 1.9375,1.9375 0,1.1641 -0.77734,1.9375 -1.9375,1.9375 H 88.831 v 5.8164 h 5.625 c 0.96875,0 1.9375,0.96875 1.9375,1.9375 0,0.96875 -0.96875,1.9375 -1.9375,1.9375 h -5.625 v 5.8164 h 8.9219 c 1.1641,0 1.9375,0.96875 1.9375,1.9375 0,1.1641 -0.77734,1.9375 -1.9375,1.9375 H 88.831 v 2.7148 l 21.719,0.03516 z"
       id="path14" />
  </g>
</svg>
