<?xml version="1.0" encoding="UTF-8"?>
<svg width="128pt" height="128pt" version="1.1" viewBox="0 0 128 128" xmlns="http://www.w3.org/2000/svg">
 <g>
  <path d="m64 11.332c0-0.70703-0.28125-1.3828-0.78125-1.8828s-1.1797-0.78125-1.8867-0.78125h-21.332c-1.4727 0-2.668 1.1914-2.668 2.6641v8h26.668z"/>
  <path d="m109.33 14c-4.4141 0.003906-7.9922 3.582-8 8v8h16v-8c-0.003906-4.418-3.582-7.9961-8-8z"/>
  <path d="m101.33 107.33c0.003907 0.41406 0.097657 0.82422 0.28125 1.1953l5.332 10.668 0.003907-0.003906c0.44922 0.90625 1.375 1.4766 2.3828 1.4766 1.0117 0 1.9336-0.57031 2.3867-1.4766l5.332-10.668v0.003906c0.18359-0.37109 0.28125-0.78125 0.28125-1.1953v-72h-16z"/>
  <path d="m88 14h-18.668v8c0 0.70703-0.28125 1.3867-0.78125 1.8867s-1.1758 0.78125-1.8828 0.78125h-32c-1.4727 0-2.668-1.1953-2.668-2.668v-8h-18.668c-1.4727 0-2.6641 1.1953-2.6641 2.668v101.33c0 0.70703 0.28125 1.3867 0.78125 1.8867s1.1758 0.78125 1.8828 0.78125h74.668c0.70703 0 1.3867-0.28125 1.8867-0.78125s0.78125-1.1797 0.78125-1.8867v-101.33c0-0.70703-0.28125-1.3867-0.78125-1.8867s-1.1797-0.78125-1.8867-0.78125zm-53.332 90.668h-5.3359c-1.4727 0-2.6641-1.1953-2.6641-2.668s1.1914-2.668 2.6641-2.668h5.3359c1.4727 0 2.6641 1.1953 2.6641 2.668s-1.1914 2.668-2.6641 2.668zm0-16h-5.3359c-1.4727 0-2.6641-1.1953-2.6641-2.668s1.1914-2.668 2.6641-2.668h5.3359c1.4727 0 2.6641 1.1953 2.6641 2.668s-1.1914 2.668-2.6641 2.668zm0-16h-5.3359c-1.4727 0-2.6641-1.1953-2.6641-2.668s1.1914-2.668 2.6641-2.668h5.3359c1.4727 0 2.6641 1.1953 2.6641 2.668s-1.1914 2.668-2.6641 2.668zm0-16h-5.3359c-1.4727 0-2.6641-1.1953-2.6641-2.668s1.1914-2.668 2.6641-2.668h5.3359c1.4727 0 2.6641 1.1953 2.6641 2.668s-1.1914 2.668-2.6641 2.668zm0-16h-5.3359c-1.4727 0-2.6641-1.1953-2.6641-2.668s1.1914-2.668 2.6641-2.668h5.3359c1.4727 0 2.6641 1.1953 2.6641 2.668s-1.1914 2.668-2.6641 2.668zm37.332 64h-26.668c-1.4727 0-2.6641-1.1953-2.6641-2.668s1.1914-2.668 2.6641-2.668h26.668c1.4727 0 2.668 1.1953 2.668 2.668s-1.1953 2.668-2.668 2.668zm0-16h-26.668c-1.4727 0-2.6641-1.1953-2.6641-2.668s1.1914-2.668 2.6641-2.668h26.668c1.4727 0 2.668 1.1953 2.668 2.668s-1.1953 2.668-2.668 2.668zm0-16h-26.668c-1.4727 0-2.6641-1.1953-2.6641-2.668s1.1914-2.668 2.6641-2.668h26.668c1.4727 0 2.668 1.1953 2.668 2.668s-1.1953 2.668-2.668 2.668zm0-16h-26.668c-1.4727 0-2.6641-1.1953-2.6641-2.668s1.1914-2.668 2.6641-2.668h26.668c1.4727 0 2.668 1.1953 2.668 2.668s-1.1953 2.668-2.668 2.668zm0-16h-26.668c-1.4727 0-2.6641-1.1953-2.6641-2.668s1.1914-2.668 2.6641-2.668h26.668c1.4727 0 2.668 1.1953 2.668 2.668s-1.1953 2.668-2.668 2.668z"/>
 </g>
</svg>
