<?xml version="1.0" encoding="UTF-8"?>
<svg width="128pt" height="128pt" version="1.1" viewBox="0 0 128 128" xmlns="http://www.w3.org/2000/svg">
 <path d="m56.441 64v-27.711c0-1.3906 1.1289-2.5156 2.5195-2.5156h20.152c1.0195 0 1.9375 0.61328 2.3281 1.5508 0.39062 0.94531 0.17578 2.0273-0.54688 2.7461l-5.7734 5.7773 5.7734 5.7773c0.72266 0.71875 0.9375 1.8008 0.54688 2.7461-0.39062 0.9375-1.3086 1.5547-2.3281 1.5547h-17.633v10.074c1.0547 0.37109 2.0195 0.97656 2.8242 1.7812l4.7422 4.7422c1.3789-1.2305 3.1719-1.918 5.0312-1.918 2.0039 0 3.9258 0.79688 5.3398 2.2148 6.3828 6.3828 19.109 19.109 19.109 19.109 0.72266 0.71875 0.9375 1.8008 0.54688 2.7461-0.39062 0.9375-1.3086 1.5547-2.3281 1.5547h-65.492c-1.0195 0-1.9375-0.61719-2.3281-1.5547-0.39062-0.94531-0.17578-2.0273 0.54688-2.7461 0 0 16.664-16.668 24.145-24.148 0.80469-0.80469 1.7734-1.4102 2.8242-1.7812zm9.0352 10.078-4.7344-4.7344c-0.46875-0.47266-1.1133-0.73828-1.7812-0.73828-0.66797 0-1.3086 0.26562-1.7812 0.73828l-19.848 19.848h13.031zm25.191 15.113-14.812-14.809c-0.46875-0.47266-1.1133-0.73828-1.7773-0.73828-0.66797 0-1.3125 0.26562-1.7812 0.73828l-14.812 14.809zm-17.633-50.383h-11.555v10.078h11.555l-3.2578-3.2578c-0.98438-0.98438-0.98438-2.5781 0-3.5625z" fill-rule="evenodd"/>
</svg>
