<?xml version="1.0" encoding="UTF-8"?>
<svg width="128pt" height="128pt" version="1.1" viewBox="0 0 128 128" xmlns="http://www.w3.org/2000/svg">
 <g fill-rule="evenodd">
  <path d="m28 78c3.3125 0 6 2.6875 6 6s-2.6875 8-6 8-6-4.6875-6-8 2.6875-6 6-6z"/>
  <path d="m64 78c3.3125 0 6 2.6875 6 6s-2.6875 8-6 8-6-4.6875-6-8 2.6875-6 6-6z"/>
  <path d="m100 78c3.3125 0 6 2.6875 6 6s-2.6875 8-6 8-6-4.6875-6-8 2.6875-6 6-6z"/>
  <path d="m66 30c4.4141 0 8 3.5859 8 8 0 2.9141-1.4453 6.7617-3.6289 9.3789-1.2422 1.4883-2.7109 2.6211-4.3711 2.6211-1.6562 0-3.125-1.1328-4.3711-2.6211-2.1875-2.6172-3.6289-6.4648-3.6289-9.3789 0-4.4141 3.5859-8 8-8z"/>
  <path d="m120 32c0-2.6523-1.0547-5.1953-2.9297-7.0703s-4.4219-2.9297-7.0703-2.9297h-92c-2.6523 0-5.1953 1.0547-7.0703 2.9297s-2.9297 4.4219-2.9297 7.0703v64c0 2.6523 1.0547 5.1953 2.9297 7.0703s4.4219 2.9297 7.0703 2.9297h92c2.6523 0 5.1953-1.0547 7.0703-2.9297s2.9297-4.4219 2.9297-7.0703v-64zm-44 70h4v-28h-32v28h4v-6c0-1.0586 0.42188-2.0781 1.1719-2.8281s1.7695-1.1719 2.8281-1.1719h0.85547c0.30859 0.40625 0.64062 0.79297 0.98828 1.1484 1.7148 1.7578 3.8633 2.8516 6.1523 2.8516 2.2891 0 4.4375-1.0938 6.1523-2.8516 0.35156-0.35938 0.67969-0.74219 0.98828-1.1484h0.85547c1.0586 0 2.0781 0.42188 2.8281 1.1719s1.1719 1.7695 1.1719 2.8281zm36-0.34375c2.3281-0.82031 4-3.0469 4-5.6562v-22h-32v28h4v-6c0-1.0586 0.42188-2.0781 1.1719-2.8281s1.7695-1.1719 2.8281-1.1719h0.85547c0.30859 0.40625 0.64062 0.79297 0.98828 1.1484 1.7148 1.7578 3.8633 2.8516 6.1523 2.8516 2.2891 0 4.4375-1.0938 6.1523-2.8516 0.35156-0.35938 0.67969-0.74219 0.98828-1.1484h0.85547c1.0586 0 2.0781 0.42188 2.8281 1.1719s1.1719 1.7695 1.1719 2.8281zm-72 0.34375h4v-28h-32v22c0 2.6133 1.6719 4.8359 4 5.6562v-5.6562c0-1.0586 0.42188-2.0781 1.1719-2.8281s1.7695-1.1719 2.8281-1.1719h0.85547c0.30859 0.40625 0.64062 0.79297 0.98828 1.1484 1.7148 1.7578 3.8633 2.8516 6.1523 2.8516 2.2891 0 4.4375-1.0938 6.1523-2.8516 0.35156-0.35938 0.67969-0.74219 0.98828-1.1484h0.85547c1.0586 0 2.0781 0.42188 2.8281 1.1719s1.1719 1.7695 1.1719 2.8281zm50-64v14c0 3.3125-2.6875 6-6 6h-4c-0.53125 0-1.0391 0.21094-1.4141 0.58594s-0.58594 0.88281-0.58594 1.4141v10h38v-36c0-2.1211-0.84375-4.1562-2.3438-5.6562-1.5-1.5039-3.5352-2.3438-5.6562-2.3438h-90c-3.3125 0-6 2.6875-6 6v38h36v-12.02c0-4.4062 3.5742-7.9805 7.9805-7.9805h2.625c2.0586 2.4414 4.6562 4 7.3906 4s5.332-1.5586 7.3906-4h6.6094c0.53125 0 1.0391-0.21094 1.4141-0.58594s0.58594-0.88281 0.58594-1.4141v-12c0-1.1055 0.89453-2 2-2h2c1.0586 0 2.0781 0.42188 2.8281 1.1719s1.1719 1.7695 1.1719 2.8281zm-24 32h4v-2c0-3.3125-2.6875-6-6-6h-6c-1.1055 0-2 0.89453-2 2s0.89453 2 2 2h6c1.1055 0 2 0.89453 2 2z"/>
 </g>
</svg>
