<?xml version="1.0" encoding="UTF-8"?>
<svg width="128pt" height="128pt" version="1.1" viewBox="0 0 128 128" xmlns="http://www.w3.org/2000/svg">
 <g>
  <path d="m114.89 8h-101.77c-5.7734 0.007812-10.449 4.6836-10.457 10.457v91.086c0.007812 5.7734 4.6836 10.449 10.457 10.457h101.77c5.7734-0.007812 10.449-4.6836 10.457-10.457v-91.086c-0.007812-5.7734-4.6836-10.449-10.457-10.457zm-65.875 9.4102c2.1172 0 4.0234 1.2734 4.832 3.2266 0.80859 1.957 0.35938 4.2031-1.1328 5.6992-1.4961 1.4961-3.7461 1.9414-5.6992 1.1328s-3.2266-2.7148-3.2266-4.8281c0-1.3867 0.55078-2.7188 1.5312-3.6992 0.98047-0.98047 2.3086-1.5312 3.6953-1.5312zm-15.918 0c2.1172 0 4.0234 1.2734 4.832 3.2266 0.80859 1.957 0.36328 4.2031-1.1328 5.6992-1.4961 1.4961-3.7461 1.9414-5.6992 1.1328s-3.2266-2.7148-3.2266-4.8281c0-1.3867 0.55078-2.7188 1.5312-3.6992 0.98047-0.98047 2.3086-1.5312 3.6953-1.5312zm-15.918 0h0.003907c2.1133 0 4.0195 1.2734 4.8281 3.2266 0.80859 1.957 0.36328 4.2031-1.1328 5.6992-1.4961 1.4961-3.7422 1.9414-5.6992 1.1328-1.9531-0.80859-3.2266-2.7148-3.2266-4.8281 0-1.3867 0.55078-2.7188 1.5312-3.6992 0.98047-0.98047 2.3125-1.5312 3.6992-1.5312zm98.871 92.133h0.003906c0 0.64062-0.51953 1.1641-1.1641 1.1641h-101.77c-0.64453 0-1.1641-0.52344-1.1641-1.1641v-72.266h104.1zm-1.5273-83.207c-0.98047 0.98047-2.3125 1.5352-3.6992 1.5312h-27.883c-1.3867 0-2.7188-0.54688-3.7031-1.5273-0.98047-0.98047-1.5312-2.3125-1.5312-3.6992 0-1.3906 0.55078-2.7188 1.5312-3.6992 0.98438-0.98438 2.3164-1.5312 3.7031-1.5312h27.883c2.1172 0 4.0234 1.2734 4.832 3.2266 0.80859 1.957 0.36328 4.2031-1.1328 5.6992z"/>
  <path d="m45.18 98.352 39.461-22.781c0.5625-0.32812 0.91016-0.92969 0.91016-1.5781 0-0.65234-0.34766-1.2539-0.91016-1.5781l-39.461-22.781c-0.5625-0.32812-1.2578-0.32812-1.8203 0-0.5625 0.32422-0.91016 0.92578-0.91016 1.5781v45.562c0 0.65234 0.34766 1.2539 0.91016 1.5781 0.5625 0.32422 1.2578 0.32422 1.8203 0z"/>
 </g>
</svg>
