<?xml version="1.0" encoding="UTF-8"?>
<svg width="128pt" height="128pt" version="1.1" viewBox="0 0 128 128" xmlns="http://www.w3.org/2000/svg">
 <g>
  <path d="m33.023 94.465h-23.68c-1.6641 0-3.0703 1.4062-3.0703 3.0703v21.887c0 1.6641 1.4062 3.0703 3.0703 3.0703h23.68c1.6641 0 3.0703-1.4062 3.0703-3.0703l0.003906-21.887c0-1.6641-1.4102-3.0703-3.0742-3.0703z"/>
  <path d="m76.031 75.391h-23.68c-1.6641 0-3.0703 1.4062-3.0703 3.0703v40.961c0 1.6641 1.4062 3.0703 3.0703 3.0703h23.68c1.6641 0 3.0703-1.4062 3.0703-3.0703v-40.961c0.003907-1.6602-1.4062-3.0703-3.0703-3.0703z"/>
  <path d="m119.04 56.703h-23.68c-1.6641 0-3.0703 1.4062-3.0703 3.0703v59.648c0 1.6641 1.4062 3.0703 3.0703 3.0703l23.68 0.003906c1.6641 0 3.0703-1.4062 3.0703-3.0703l0.003906-59.648c0-1.793-1.4102-3.0742-3.0742-3.0742z"/>
  <path d="m124.16 11.137c-0.89453-1.793-2.6875-2.9453-4.6094-3.0703l-29.184-2.4336c-2.1758-0.12891-4.0977 0.76953-5.375 2.5586-1.1523 1.793-1.2812 4.0977-0.25781 5.8867l4.3516 8.0625-82.43 43.906c-3.1992 1.6641-4.4805 5.6328-2.6875 8.9609 1.1523 2.1758 3.457 3.457 5.7617 3.457 1.0234 0 2.0469-0.25781 3.0703-0.76953l82.434-43.777 4.3516 8.0625c1.0234 1.9219 2.9453 3.0703 5.1211 3.0703h0.12891c2.0469 0 4.0977-1.1523 5.1211-2.9453l14.074-25.465c1.0234-1.6641 1.0234-3.8398 0.12891-5.5039z"/>
 </g>
</svg>
