<?xml version="1.0" encoding="UTF-8"?>
<svg width="128pt" height="128pt" version="1.1" viewBox="0 0 128 128" xmlns="http://www.w3.org/2000/svg">
 <g>
  <path d="m66.535 15.848c0.4375 7.4102-5.2148 13.773-12.625 14.207-7.4102 0.4375-13.77-5.2148-14.207-12.625-0.4375-7.4102 5.2148-13.773 12.625-14.207 7.4102-0.4375 13.773 5.2148 14.207 12.625"/>
  <path d="m74.113 88.832h-31.359l-5.2461-49.406c-0.25781-2.4336-2.4336-4.2227-4.8633-3.9688-2.4336 0.25781-4.2227 2.4336-3.9688 4.8633l5.6328 53.375c0.25781 2.3047 2.1758 3.9688 4.3516 3.9688l-2.8164 22.016c-0.25781 2.4336 1.4062 4.6094 3.8398 4.9922h0.51172c2.1758 0 4.0977-1.6641 4.3516-3.8398l2.9453-23.039h15.23l2.9453 23.039c0.25781 2.3047 2.1758 3.8398 4.3516 3.8398h0.51172c2.4336-0.25781 4.2227-2.5586 3.8398-4.9922l-2.8164-22.016h2.3047c2.4336 0 4.4805-2.0469 4.4805-4.4805-0.003906-2.4297-1.668-4.3516-4.2266-4.3516z"/>
  <path d="m99.199 22.91-5.5039-7.6797c-0.51172-0.64062-1.4062-0.64062-1.9219 0.12891l-12.289 20.734c-0.38281 0.64062 0 1.4062 0.64062 1.6641l5.7617 1.793c-2.6875 2.9453-5.7617 4.7344-8.4492 4.7344-1.9219 0-5.2461-2.8164-7.8086-4.8633-1.5352-1.2812-3.0703-2.5586-4.7344-3.5859-2.9453-2.1758-7.0391-2.6875-11.777-2.6875-8.832 0-10.367 3.8398-10.367 8.5742 0 6.3984 2.5586 31.105 3.3281 37.121 1.1523 7.8086 10.754 6.3984 20.609 6.5273 8.9609 0.12891 12.289 0.12891 15.488 0.64062 0.64062 0.12891 1.2812 0.64062 1.2812 1.4062 0.25781 6.0156-0.25781 18.559-1.0234 29.441-0.25781 3.0703 1.2812 6.0156 3.9688 7.4258 1.0234 0.51172 1.9219 0.64062 2.8164 0.64062 3.5859 0 6.5273-2.6875 6.9102-6.3984 1.793-22.145 1.6641-35.457-0.25781-39.551-2.6875-5.6328-9.8555-7.4258-27.52-7.8086-0.64062-7.5508-1.4062-16-1.9219-21.504 3.1992 2.3047 6.7852 4.4805 10.754 4.4805h0.12891c7.4258 0 15.23-5.375 20.223-13.953 1.4062-2.3047 0.64062-5.375-1.793-6.7852-0.76953-0.38281-1.5352-0.64062-2.4336-0.64062l5.7617-8.5742c0.38672-0.38281 0.38672-0.89453 0.12891-1.2812z"/>
 </g>
</svg>
