<?xml version="1.0" encoding="UTF-8"?>
<svg width="128pt" height="128pt" version="1.1" viewBox="0 0 128 128" xmlns="http://www.w3.org/2000/svg">
 <path d="m13.879 25.008c4.3008 0 7.7852 3.4883 7.7852 7.7812 0 4.3047-3.4844 7.7852-7.7852 7.7852-4.3008 0-7.7891-3.4805-7.7891-7.7852 0-4.293 3.4883-7.7812 7.7891-7.7812zm40.828 44.488c4.3008 0 7.7852 3.4883 7.7852 7.7812 0 4.3047-3.4844 7.7891-7.7852 7.7891-4.2969 0-7.7891-3.4805-7.7891-7.7891 0-4.293 3.4883-7.7812 7.7891-7.7812zm8.3867 25.527v9.7344h-16.77v-10.598c0-4.2188 3.4414-7.6602 7.6602-7.6602h1.4492c3.0898 0 7.6602 2.9727 7.6602 8.5234zm17.438-25.527c4.2969 0 7.7852 3.4883 7.7852 7.7812 0 4.3047-3.4883 7.7891-7.7852 7.7891-4.3008 0-7.7891-3.4805-7.7891-7.7891 0-4.293 3.4883-7.7812 7.7891-7.7812zm8.3828 25.527v9.7344h-16.77v-10.598c0-4.2188 3.4414-7.6602 7.6602-7.6602h1.4531c3.0898 0 7.6602 2.9727 7.6602 8.5234zm17.438-25.527c4.3008 0 7.7891 3.4883 7.7891 7.7812 0 4.3047-3.4883 7.7891-7.7891 7.7891-4.3008 0-7.7852-3.4805-7.7852-7.7891 0-4.293 3.4844-7.7812 7.7852-7.7812zm8.3828 25.527v9.7344h-16.77v-10.598c0-4.2188 3.4414-7.6602 7.6602-7.6602h1.4492c3.0898 0 7.6602 2.9727 7.6602 8.5234zm7.7734-71.785v41.988h-83.961v-41.988zm-5.0625 5.0625h-73.832v31.863h73.832zm-96.523 17.043 3.9219 2.5977 3.4727-7.3789c1.3945-2.9961 5.9727-0.875 4.5703 2.1406l-4.6562 9.9062c-0.75781 1.4375-2.2812 2.1211-3.7422 1.1641l-2.2227-1.4766v7.9766h-16.773v-10.598c0-2.7656 1.4844-5.1953 3.6875-6.5469l4.7188 3.8086 4.6953-3.793c0.91797 0.5625 1.7148 1.3164 2.3281 2.2031z" fill-rule="evenodd"/>
</svg>
