<?xml version="1.0" encoding="UTF-8" standalone="no"?>
<!-- Generiert durch Microsoft Visio, SVG Export tasks-9plus.svg f9+ -->

<svg
   width="1.007269in"
   height="1.0072676in"
   viewBox="0 0 72.523387 72.523371"
   xml:space="preserve"
   color-interpolation-filters="sRGB"
   class="st4"
   version="1.1"
   id="svg22"
   sodipodi:docname="tasks-9plus.svg"
   inkscape:version="1.1.1 (3bf5ae0d25, 2021-09-20)"
   xmlns:inkscape="http://www.inkscape.org/namespaces/inkscape"
   xmlns:sodipodi="http://sodipodi.sourceforge.net/DTD/sodipodi-0.dtd"
   xmlns="http://www.w3.org/2000/svg"
   xmlns:svg="http://www.w3.org/2000/svg"
   xmlns:v="http://schemas.microsoft.com/visio/2003/SVGExtensions/"><defs
   id="defs26">
		
		
		
		
	
			
			
			
			
			
					</defs><sodipodi:namedview
   id="namedview24"
   pagecolor="#ffffff"
   bordercolor="#666666"
   borderopacity="1.0"
   inkscape:pageshadow="2"
   inkscape:pageopacity="0.0"
   inkscape:pagecheckerboard="0"
   inkscape:document-units="in"
   showgrid="false"
   fit-margin-top="0"
   fit-margin-left="0"
   fit-margin-right="0"
   fit-margin-bottom="0"
   inkscape:zoom="2.1997118"
   inkscape:cx="-49.779249"
   inkscape:cy="69.327265"
   inkscape:window-width="2560"
   inkscape:window-height="1369"
   inkscape:window-x="-8"
   inkscape:window-y="-8"
   inkscape:window-maximized="1"
   inkscape:current-layer="svg22" />
	<v:documentProperties
   v:langID="1031"
   v:metric="true"
   v:viewMarkup="false">
		<v:userDefs>
			<v:ud
   v:nameU="msvNoAutoConnect"
   v:val="VT0(1):26" />
		</v:userDefs>
	</v:documentProperties>

	<style
   type="text/css"
   id="style2">
	<![CDATA[
		.st1 {fill:#000000;stroke:#000000;stroke-linecap:round;stroke-linejoin:round;stroke-width:0.24}
		.st2 {fill:none;stroke:none;stroke-linecap:round;stroke-linejoin:round;stroke-width:0.75}
		.st3 {fill:#ffffff;font-family:Calibri;font-size:4.99999em}
		.st4 {fill:none;fill-rule:evenodd;font-size:12px;overflow:visible;stroke-linecap:square;stroke-miterlimit:3}
	]]>
	</style>

	<g
   id="shape1-1"
   v:mID="1"
   v:groupContext="shape"
   transform="translate(0.12164145,-769.83886)">
			<title
   id="title6">Kreis</title>
			<v:userDefs>
				<v:ud
   v:nameU="visVersion"
   v:val="VT0(15):26" />
			</v:userDefs>
			<path
   d="m 0,805.75 a 36.1417,36.1417 0 0 1 72.28,0 36.1417,36.1417 0 1 1 -72.28,0 z"
   class="st1"
   id="path8" />
		</g><g
   aria-label="9+"
   id="text17"
   class="st3"
   style="font-size:59.9999px;font-family:Calibri;fill:#ffffff"
   transform="translate(-41.689359,-724.48386)"><path
     d="m 76.583227,757.94084 q 0,2.46093 -0.292968,4.98046 -0.292969,2.51952 -0.996092,4.86327 -0.703124,2.31445 -1.904293,4.36522 -1.171873,2.02148 -2.988275,3.54492 -1.787106,1.52343 -4.277335,2.40234 -2.460933,0.8496 -5.742176,0.8496 -1.259763,0 -2.460933,-0.17578 -1.171872,-0.14648 -2.138667,-0.38086 -0.937498,-0.23437 -1.582028,-0.49804 -0.64453,-0.26367 -0.937498,-0.52734 -0.292968,-0.26368 -0.439452,-0.70313 -0.117188,-0.46875 -0.117188,-1.23046 0,-0.64453 0.0293,-1.02539 0.05859,-0.38086 0.146484,-0.58594 0.08789,-0.20508 0.234375,-0.26367 0.175781,-0.0879 0.410155,-0.0879 0.322265,0 0.908201,0.23437 0.585937,0.20508 1.464841,0.46875 0.908201,0.26367 2.109371,0.49805 1.201169,0.20508 2.695307,0.20508 2.841791,0 4.863271,-1.08399 2.050777,-1.11327 3.339837,-2.95897 1.28906,-1.8457 1.93359,-4.27734 0.64453,-2.43163 0.703124,-5.12694 -1.552732,0.9082 -3.720696,1.61132 -2.167964,0.70313 -4.980459,0.70313 -3.164056,0 -5.33202,-0.84961 -2.138668,-0.87891 -3.457024,-2.37304 -1.28906,-1.49414 -1.874996,-3.54492 -0.55664,-2.05077 -0.55664,-4.48241 0,-2.51953 0.73242,-4.77538 0.732421,-2.28515 2.285152,-4.01366 1.552731,-1.72852 3.95507,-2.75391 2.402339,-1.02538 5.742176,-1.02538 2.373042,0 4.189445,0.61523 1.845699,0.58594 3.193352,1.72851 1.347654,1.11328 2.285152,2.72461 0.937498,1.58202 1.494138,3.6035 0.585936,2.02148 0.82031,4.39453 0.263672,2.34374 0.263672,4.95116 z m -5.126943,-0.55664 q 0,-3.74999 -0.498046,-6.29882 -0.498046,-2.57812 -1.464841,-4.16015 -0.966794,-1.58202 -2.373042,-2.28515 -1.406247,-0.70312 -3.251946,-0.70312 -1.904293,0 -3.251947,0.70312 -1.347653,0.67383 -2.226558,1.8457 -0.849607,1.14258 -1.259763,2.60742 -0.410155,1.46484 -0.410155,3.01757 0,1.72851 0.351562,3.16406 0.380858,1.43554 1.201169,2.43163 0.820311,0.99609 2.138668,1.55273 1.318356,0.52735 3.251946,0.52735 2.197261,0 4.248038,-0.64453 2.050778,-0.67383 3.544915,-1.75781 z"
     style="font-size:59.9999px;font-family:Calibri;fill:#ffffff"
     id="path4323" /><path
     d="m 107.46207,761.51505 q 0,0.55664 -0.0879,0.96679 -0.0879,0.38086 -0.23437,0.64453 -0.14649,0.26368 -0.35157,0.38086 -0.20507,0.11719 -0.43945,0.11719 h -9.609353 v 10.66404 q 0,0.23438 -0.117188,0.41016 -0.117187,0.14648 -0.380858,0.26367 -0.234375,0.11718 -0.64453,0.20507 -0.410156,0.0586 -1.025389,0.0586 -0.585936,0 -1.025388,-0.0586 -0.410156,-0.0879 -0.673827,-0.20507 -0.234375,-0.11719 -0.351562,-0.26367 -0.117187,-0.17578 -0.117187,-0.41016 v -10.66404 h -9.609356 q -0.263671,0 -0.468749,-0.11719 -0.17578,-0.11718 -0.322265,-0.38086 -0.146484,-0.26367 -0.234374,-0.64453 -0.08789,-0.41015 -0.08789,-0.96679 0,-0.52734 0.08789,-0.9082 0.08789,-0.41016 0.234374,-0.67383 0.146485,-0.26367 0.322265,-0.38086 0.205078,-0.11718 0.439453,-0.11718 h 9.638652 v -10.66405 q 0,-0.23437 0.117187,-0.41015 0.117187,-0.20508 0.351562,-0.32227 0.263671,-0.14648 0.673827,-0.20507 0.439452,-0.0879 1.025388,-0.0879 0.615233,0 1.025389,0.0879 0.410155,0.0586 0.64453,0.20507 0.263671,0.11719 0.380858,0.32227 0.117188,0.17578 0.117188,0.41015 v 10.66405 h 9.638653 q 0.23437,0 0.41015,0.11718 0.20508,0.11719 0.35157,0.38086 0.17578,0.26367 0.23437,0.67383 0.0879,0.38086 0.0879,0.9082 z"
     style="font-size:59.9999px;font-family:Calibri;fill:#ffffff"
     id="path4325" /></g>
</svg>
